<?xml version="1.0" standalone="no"?>
<!DOCTYPE svg PUBLIC "-//W3C//DTD SVG 20010904//EN"
 "http://www.w3.org/TR/2001/REC-SVG-20010904/DTD/svg10.dtd">
<svg version="1.0" xmlns="http://www.w3.org/2000/svg"
 width="260.000000pt" height="260.000000pt" viewBox="0 0 260.000000 260.000000"
 preserveAspectRatio="xMidYMid meet">
<metadata>
Created by potrace 1.11, written by Peter Selinger 2001-2013
</metadata>
<g transform="translate(0.000000,260.000000) scale(0.100000,-0.100000)"
fill="#000000" stroke="none">
<path d="M1226 2509 c-16 -35 -49 -107 -74 -159 -24 -52 -55 -120 -69 -150
-14 -30 -48 -102 -75 -160 -27 -58 -59 -125 -70 -150 -29 -63 -88 -188 -143
-305 -26 -55 -58 -122 -70 -150 -12 -27 -42 -90 -65 -140 -23 -49 -74 -157
-112 -240 -39 -82 -103 -220 -143 -305 -71 -151 -233 -500 -302 -650 -20 -41
-37 -78 -39 -82 -5 -8 7 -4 176 51 249 80 332 109 340 118 4 4 105 215 223
468 118 253 241 514 272 579 31 65 65 140 77 165 11 25 40 88 64 140 l44 93
-2 471 -3 470 -29 -64z"/>
<path d="M1340 2098 l0 -476 64 -134 c35 -73 94 -196 131 -273 72 -149 133
-277 238 -497 l65 -137 -106 -35 c-104 -34 -204 -65 -563 -180 -97 -31 -182
-56 -189 -56 -7 0 -11 -3 -7 -6 7 -7 20 -10 292 -59 105 -19 237 -44 295 -55
58 -11 121 -22 140 -25 19 -3 53 -10 75 -15 22 -4 62 -11 89 -15 27 -3 52 -8
56 -10 3 -2 26 -6 50 -10 25 -3 52 -8 60 -10 8 -2 31 -6 50 -9 19 -3 49 -8 65
-12 96 -19 400 -72 402 -70 1 1 -3 13 -10 26 -7 14 -39 81 -72 150 -32 69 -83
177 -113 240 -30 63 -85 180 -122 260 -37 80 -98 207 -134 284 -36 76 -66 139
-66 141 0 1 -27 61 -61 131 -89 188 -147 309 -186 394 -20 41 -66 140 -104
219 -38 79 -69 145 -69 146 0 2 -28 61 -61 132 -34 70 -93 195 -131 278 -38
82 -71 151 -74 154 -2 2 -4 -210 -4 -471z"/>
</g>
</svg>
